<svg width="87" height="87" viewBox="0 0 87 87" fill="none" xmlns="http://www.w3.org/2000/svg">
<circle cx="43.5" cy="43.5" r="43.5" fill="#F4F4F4"/>
<path d="M32.5 18.5H53.5C55.6892 18.5 57.5 20.3563 57.5 22.6875V63.3125C57.5 65.6437 55.6892 67.5 53.5 67.5H32.5C30.3108 67.5 28.5 65.6437 28.5 63.3125V22.6875C28.5 20.3563 30.3108 18.5 32.5 18.5ZM39.5 61.75C39.5 63.7352 41.0454 65.375 43 65.375C44.9546 65.375 46.5 63.7352 46.5 61.75C46.5 59.7648 44.9546 58.125 43 58.125C41.0454 58.125 39.5 59.7648 39.5 61.75ZM52.375 56C53.2889 56 54 55.2294 54 54.3281V23.8594C54 22.9581 53.2889 22.1875 52.375 22.1875H33.625C32.7111 22.1875 32 22.9581 32 23.8594V54.3281C32 55.2294 32.7111 56 33.625 56H52.375Z" fill="#F63854" stroke="white"/>
</svg>
