<svg width="87" height="87" viewBox="0 0 87 87" fill="none" xmlns="http://www.w3.org/2000/svg">
<circle cx="43.5" cy="43.5" r="43.5" fill="#F4F4F4"/>
<path d="M54.1088 40.1451L56.0111 42.6815C57.0447 44.0596 58.8118 43.0835 58.8118 41.1348V30.375L54.1088 40.1451ZM54.1088 40.1451L54.1963 40.0284L53.7963 39.7284L53.3963 40.0284L53.4838 40.1451L47.2338 48.4784C46.38 49.6177 44.995 49.6177 44.1405 48.4784L39.4375 42.2077L39.525 42.091L39.125 41.791L38.725 42.091L38.8125 42.2077L35.9764 45.9901L54.1088 40.1451ZM29.875 55.1667V55.6667H30.375H59.9062C60.0159 55.6667 60.153 55.7246 60.2797 55.8937C60.4067 56.0629 60.5 56.3198 60.5 56.625V59.5417C60.5 59.8469 60.4067 60.1037 60.2797 60.273C60.153 60.442 60.0159 60.5 59.9062 60.5H28.1875C27.7763 60.5 27.3657 60.2788 27.0408 59.8456C26.7158 59.4123 26.5 58.7908 26.5 58.0833V27.4583C26.5 27.1531 26.5933 26.8963 26.7203 26.727C26.847 26.558 26.9841 26.5 27.0938 26.5H29.2812C29.3909 26.5 29.528 26.558 29.6547 26.727C29.7817 26.8963 29.875 27.1531 29.875 27.4583V55.1667ZM51.103 35.904L51.328 35.604L51.103 35.304L48.8882 32.3509C48.4857 31.8143 48.4114 31.0546 48.61 30.4153C48.8132 29.7613 49.2271 29.4167 49.6482 29.4167H57.7188C57.8284 29.4167 57.9654 29.4747 58.0921 29.6436C58.2189 29.8128 58.3121 30.0695 58.3118 30.3746V30.375V41.1348C58.3118 41.9648 57.9385 42.5075 57.5573 42.718C57.3691 42.822 57.1767 42.8495 56.9973 42.8081C56.8185 42.7668 56.6102 42.6469 56.4111 42.3815L54.1963 39.4284L53.7963 38.8951L53.3963 39.4284L46.8338 48.1784L46.8337 48.1785C46.4864 48.6419 46.0666 48.8329 45.6874 48.8329C45.3082 48.8329 44.8882 48.6419 44.5405 48.1784L39.525 41.491L39.125 40.9576L38.725 41.4911L35.5764 45.6901C35.5764 45.6901 35.5763 45.6901 35.5763 45.6901C35.4423 45.8688 35.3023 45.9174 35.2029 45.9174C35.1035 45.9174 34.9634 45.8688 34.8294 45.6901L33.2831 43.6284C33.1451 43.4444 33.0627 43.1815 33.0627 42.8971C33.0627 42.6127 33.1451 42.3498 33.2831 42.1658L37.9787 35.9049L37.9788 35.9048C38.3261 35.4414 38.7459 35.2505 39.1251 35.2505C39.5043 35.2505 39.9243 35.4414 40.272 35.9049L45.2875 42.5923L45.6875 43.1257L46.0875 42.5923L51.103 35.904Z" fill="#F63854" stroke="white"/>
</svg>
