<svg width="87" height="87" viewBox="0 0 87 87" fill="none" xmlns="http://www.w3.org/2000/svg">
<circle cx="43.5" cy="43.5" r="43.5" fill="#F4F4F4"/>
<path d="M41.875 35.5C41.875 39.3462 38.5995 42.5 34.5 42.5C30.4005 42.5 27.125 39.3462 27.125 35.5C27.125 31.6538 30.4005 28.5 34.5 28.5C38.5995 28.5 41.875 31.6538 41.875 35.5ZM34.5 46.7143C36.2687 46.7143 37.9289 46.3123 39.4243 45.6429H39.9C44.119 45.6429 47.5 48.8971 47.5 52.8571V54.7857C47.5 56.2614 46.2354 57.5 44.625 57.5H24.375C22.7646 57.5 21.5 56.2614 21.5 54.7857V52.8571C21.5 48.8971 24.881 45.6429 29.1 45.6429H29.5761C31.0771 46.3119 32.7306 46.7143 34.5 46.7143ZM61 36.5714C61 39.8217 58.2237 42.5 54.75 42.5C51.2763 42.5 48.5 39.8217 48.5 36.5714C48.5 33.3212 51.2763 30.6429 54.75 30.6429C58.2237 30.6429 61 33.3212 61 36.5714ZM54.75 46.1786C55.8834 46.1786 56.9452 45.9626 57.9372 45.6429H58.125C62.2245 45.6429 65.5 48.7966 65.5 52.6429C65.5 54.1186 64.2354 55.3571 62.625 55.3571H50.75V52.8571C50.75 50.3682 49.8044 48.1036 48.2744 46.325C49.2224 45.8962 50.2642 45.6429 51.375 45.6429H51.5628C52.5548 45.9626 53.6166 46.1786 54.75 46.1786Z" fill="#F63854" stroke="white"/>
</svg>
