<svg width="87" height="87" viewBox="0 0 87 87" fill="none" xmlns="http://www.w3.org/2000/svg">
<circle cx="43.5" cy="43.5" r="43.5" fill="#F4F4F4"/>
<path d="M42.9788 42.8871L42.9785 42.887L27.0551 35.6636C26.315 35.3278 26.315 34.1731 27.0551 33.8372C27.0551 33.8372 27.0551 33.8372 27.0551 33.8372L42.9792 26.6138L42.9805 26.6132C43.1437 26.5386 43.321 26.5 43.5003 26.5C43.6797 26.5 43.857 26.5386 44.0202 26.6132L44.0214 26.6137L59.9442 33.8378C59.9442 33.8379 59.9442 33.8379 59.9442 33.8379C60.6844 34.1737 60.6843 35.3277 59.9442 35.6636L44.0208 42.887L44.0205 42.8871C43.6871 43.0386 43.3122 43.0386 42.9788 42.8871ZM60.1515 42.1536L59.9451 42.609C60.685 42.9443 60.685 44.0972 59.9451 44.4325L59.9451 44.4325L44.021 51.6504C43.6873 51.8016 43.312 51.8016 42.9783 51.6504L27.0549 44.4325L27.0549 44.4325C26.315 44.0972 26.315 42.9443 27.0549 42.609L30.8201 40.9027L41.6625 45.8177L41.6626 45.8178C42.2445 46.0814 42.863 46.2158 43.5 46.2158C44.1369 46.2158 44.7562 46.0815 45.3376 45.8177L56.1805 40.9027L59.9451 42.609L60.1515 42.1536ZM59.9451 51.3452L60.1515 50.8898L59.9451 51.3452C60.685 51.6805 60.685 52.8334 59.9451 53.1687L59.9451 53.1687L44.021 60.3866C43.6874 60.5378 43.3121 60.5378 42.9784 60.3867C42.9784 60.3867 42.9783 60.3867 42.9783 60.3866L27.0549 53.1687L27.0549 53.1687C26.315 52.8334 26.315 51.6805 27.0549 51.3452L26.8503 50.8937L27.0549 51.3452L30.8051 49.6457L41.6625 54.5676L41.6626 54.5676C42.2445 54.8313 42.863 54.9656 43.5 54.9656C44.1369 54.9656 44.7562 54.8313 45.3376 54.5675L56.1956 49.6457L59.9451 51.3452Z" fill="#F63854" stroke="white"/>
</svg>
