<svg width="87" height="87" viewBox="0 0 87 87" fill="none" xmlns="http://www.w3.org/2000/svg">
<circle cx="43.5" cy="43.5" r="43.5" fill="#F4F4F4"/>
<path d="M56.9219 45.8747L56.8529 46.2315L57.1709 46.4073L60.3111 48.1432L60.553 47.7056L60.313 48.1443C60.4614 48.2255 60.5313 48.3891 60.4868 48.5565C59.6925 50.9967 58.3414 53.1998 56.5741 55.0285L56.5741 55.0285L56.5703 55.0325C56.4528 55.1568 56.2534 55.1925 56.0836 55.1001C56.0833 55.0999 56.083 55.0998 56.0827 55.0996L52.9445 53.3648L52.649 53.2014L52.387 53.4146C51.1066 54.4565 49.6405 55.2674 48.0597 55.8059L47.7209 55.9213V56.2792V59.7509C47.7209 59.8971 47.6117 60.0483 47.4258 60.0871L47.4234 60.0876C44.9181 60.6236 42.2178 60.6511 39.5833 60.0876L39.5809 60.0871C39.395 60.0483 39.2858 59.8971 39.2858 59.7509V56.2792V55.9193L38.9446 55.8051C37.3581 55.2738 35.8937 54.4638 34.622 53.4164L34.3596 53.2004L34.0622 53.3648L30.9221 55.1007L30.9202 55.1017C30.7668 55.1874 30.557 55.1566 30.4327 55.0286C28.6636 53.1909 27.3118 50.9854 26.5178 48.55C26.472 48.3975 26.5341 48.2346 26.6864 48.1513L26.6883 48.1503L29.8284 46.4144L30.1465 46.2386L30.0774 45.8818C29.7726 44.3075 29.7726 42.6925 30.0774 41.1182L30.1465 40.7614L29.8284 40.5856L26.6883 38.8497L26.6864 38.8487C26.5258 38.7608 26.4698 38.5961 26.516 38.4556L26.5165 38.4539C27.3104 36.0096 28.6629 33.8028 30.4326 31.9715L30.4326 31.9715L30.4364 31.9675C30.5539 31.8432 30.7533 31.8075 30.9231 31.8999C30.9234 31.9001 30.9237 31.9002 30.924 31.9004L34.0544 33.635L34.3501 33.7988L34.6123 33.5854C35.8928 32.5435 37.3589 31.7326 38.9397 31.1941L39.2784 31.0787V30.7208V27.2491C39.2784 27.1029 39.3876 26.9517 39.5735 26.9129L39.5759 26.9124C42.0813 26.3764 44.7815 26.3489 47.4161 26.9124L47.4184 26.9129C47.6044 26.9517 47.7136 27.1029 47.7136 27.2491V30.7138V31.0736L48.0548 31.1879C49.6413 31.7191 51.1057 32.5292 52.3774 33.5765L52.6397 33.7926L52.9372 33.6282L56.0773 31.8923L56.0792 31.8912C56.2326 31.8056 56.4422 31.8363 56.5666 31.9643C58.3357 33.802 59.6876 36.0075 60.4816 38.4429C60.5274 38.5954 60.4653 38.7583 60.313 38.8416L60.3111 38.8427L57.1709 40.5785L56.8529 40.7544L56.9219 41.1112C57.2267 42.6855 57.2267 44.3004 56.9219 45.8747ZM37.099 43.4929C37.099 46.9013 39.9899 49.6381 43.496 49.6381C47.002 49.6381 49.893 46.9013 49.893 43.4929C49.893 40.0846 47.002 37.3478 43.496 37.3478C39.9899 37.3478 37.099 40.0846 37.099 43.4929Z" fill="#F63854" stroke="white"/>
</svg>
