<svg width="87" height="87" viewBox="0 0 87 87" fill="none" xmlns="http://www.w3.org/2000/svg">
<circle cx="43.5" cy="43.5" r="43.5" fill="#F4F4F4"/>
<path d="M60.0409 27.4104L60.041 27.4108C60.5041 29.5551 60.5051 31.2311 60.4987 32.9505V32.9524C60.4987 39.7386 56.8585 43.8473 51.9774 46.9611L51.7463 47.1085V47.3826V54.5219C51.7463 54.9676 51.5813 55.4853 51.2901 55.9561C50.9989 56.4269 50.6095 56.8056 50.2111 57.0043L50.2106 57.0046L43.471 60.3761C43.3048 60.45 43.1261 60.492 42.9443 60.5C42.645 60.4975 42.3585 60.3776 42.1467 60.1658C41.9328 59.952 41.8125 59.6619 41.8123 59.3594C41.8123 59.3593 41.8123 59.3593 41.8123 59.3592V52.2607V51.0538L40.9588 51.9071L39.4225 53.443L39.422 53.4436C38.7399 54.1275 37.6222 54.0326 37.0349 53.4436L37.0344 53.4431L33.5546 49.9632L33.5546 49.9631C32.8777 49.2865 32.9564 48.1751 33.5546 47.5771L33.5546 47.577L35.0909 46.0411L35.9448 45.1875H34.7374H27.6411C27.6411 45.1875 27.641 45.1875 27.641 45.1875C27.3385 45.1874 27.0483 45.0673 26.8344 44.8533C26.6225 44.6415 26.5025 44.355 26.5 44.0556C26.5078 43.8741 26.5497 43.6957 26.6237 43.5297L29.9982 36.7847C29.9983 36.7846 29.9983 36.7845 29.9984 36.7845C30.1981 36.3864 30.5776 35.9975 31.0487 35.7065C31.52 35.4156 32.0379 35.2504 32.4835 35.25H39.6071H39.8819L40.0292 35.018C43.1356 30.1251 47.231 26.5 54.0552 26.5C55.7691 26.5 57.4458 26.501 59.5904 26.961L59.5906 26.961C59.6662 26.9772 59.772 27.0323 59.8709 27.1311C59.9697 27.2298 60.0248 27.3354 60.0409 27.4104ZM55.4878 34.7503V34.75C55.4878 34.1103 55.2981 33.485 54.9428 32.9532C54.5874 32.4213 54.0823 32.0067 53.4913 31.7619C52.9004 31.5171 52.2501 31.453 51.6227 31.5777C50.9953 31.7025 50.419 32.0104 49.9666 32.4627C49.5143 32.9149 49.2062 33.4912 49.0813 34.1185C48.9564 34.7459 49.0203 35.3962 49.265 35.9872C49.5097 36.5782 49.9241 37.0834 50.4559 37.4389C50.9877 37.7944 51.613 37.9842 52.2526 37.9844L52.2528 37.4844L52.2529 37.9844C53.1106 37.9841 53.9332 37.6433 54.5397 37.0369C55.1463 36.4304 55.4873 35.608 55.4878 34.7503Z" fill="#F63854" stroke="white"/>
</svg>
